<svg height="49.219" viewBox="0 0 309.469 49.219" width="309.469" xmlns="http://www.w3.org/2000/svg"><g fill-rule="evenodd" transform="translate(-100.281 -40.938)"><path d="m176.135 87.962a3.584 3.584 0 0 0 1.4-.25 2.065 2.065 0 0 0 .915-.7 1.79 1.79 0 0 0 .32-1.055 1.4 1.4 0 0 0 -.35-.995 2.157 2.157 0 0 0 -.875-.56q-.525-.185-1.445-.405a4.057 4.057 0 0 1 -1.26-.47.9.9 0 0 1 -.41-.81 1.153 1.153 0 0 1 .47-.975 2.112 2.112 0 0 1 1.3-.355 3.088 3.088 0 0 1 1.125.2 3.544 3.544 0 0 1 1.015.63l.32-.63a2.891 2.891 0 0 0 -1.08-.67 4.054 4.054 0 0 0 -1.38-.23 3.336 3.336 0 0 0 -1.365.26 2.1 2.1 0 0 0 -.905.725 1.845 1.845 0 0 0 -.32 1.075 1.561 1.561 0 0 0 .33 1.035 2.1 2.1 0 0 0 .86.605 8.939 8.939 0 0 0 1.35.39 9.181 9.181 0 0 1 .975.27 1.562 1.562 0 0 1 .59.355.791.791 0 0 1 .225.585 1.1 1.1 0 0 1 -.465.945 2.243 2.243 0 0 1 -1.325.335 3.914 3.914 0 0 1 -1.28-.19 3.383 3.383 0 0 1 -1.08-.64l-.31.63a3.8 3.8 0 0 0 2.66.9zm7.34-5.11v2.84a1.6 1.6 0 0 1 -.41 1.145 1.417 1.417 0 0 1 -1.08.435 1.069 1.069 0 0 1 -.85-.32 1.491 1.491 0 0 1 -.28-1v-3.1h-.81v3.12a2.115 2.115 0 0 0 .46 1.48 1.742 1.742 0 0 0 1.35.5 1.957 1.957 0 0 0 .97-.24 1.662 1.662 0 0 0 .67-.7v.87h.79v-5.03zm7.35 5.03-2.76-2.61 2.52-2.41h-1.03l-2.37 2.3v-4.64h-.81v7.36h.81v-2.42l2.58 2.42zm4.48-5.03v.87a1.7 1.7 0 0 0 -.67-.73 1.99 1.99 0 0 0 -1.03-.26 2.08 2.08 0 0 0 -1.165.33 2.181 2.181 0 0 0 -.785.925 3.521 3.521 0 0 0 0 2.74 2.093 2.093 0 0 0 .78.905 2.145 2.145 0 0 0 1.175.32 2.047 2.047 0 0 0 1.035-.255 1.6 1.6 0 0 0 .665-.725v.91h.8v-5.03h-.8zm-1.54 4.43a1.415 1.415 0 0 1 -1.16-.5 2.18 2.18 0 0 1 -.41-1.42 2.228 2.228 0 0 1 .415-1.435 1.4 1.4 0 0 1 1.155-.515 1.376 1.376 0 0 1 1.14.5 2.765 2.765 0 0 1 0 2.865 1.37 1.37 0 0 1 -1.14.5zm7.88-4.43v.87a1.691 1.691 0 0 0 -.675-.73 2.035 2.035 0 0 0 -1.045-.26 2.233 2.233 0 0 0 -1.175.31 2.052 2.052 0 0 0 -.795.88 3.2 3.2 0 0 0 0 2.62 2.051 2.051 0 0 0 .795.88 2.232 2.232 0 0 0 1.175.31 2.026 2.026 0 0 0 1.055-.265 1.709 1.709 0 0 0 .675-.745v1.19a1.6 1.6 0 0 1 -.37 1.145 1.459 1.459 0 0 1 -1.1.385 3.432 3.432 0 0 1 -.935-.12 4.174 4.174 0 0 1 -.905-.39l-.14.66a3.652 3.652 0 0 0 1.98.52 2.023 2.023 0 0 0 2.27-2.27v-4.99zm-1.56 4.2a1.467 1.467 0 0 1 -1.165-.485 2.309 2.309 0 0 1 0-2.67 1.467 1.467 0 0 1 1.165-.485 1.428 1.428 0 0 1 1.145.485 2.355 2.355 0 0 1 0 2.67 1.428 1.428 0 0 1 -1.145.485zm7.82-4.2v.87a1.7 1.7 0 0 0 -.67-.73 1.99 1.99 0 0 0 -1.03-.26 2.08 2.08 0 0 0 -1.165.33 2.181 2.181 0 0 0 -.785.925 3.521 3.521 0 0 0 0 2.74 2.093 2.093 0 0 0 .78.905 2.145 2.145 0 0 0 1.175.32 2.047 2.047 0 0 0 1.035-.255 1.6 1.6 0 0 0 .665-.725v.91h.8v-5.03h-.8zm-1.54 4.43a1.415 1.415 0 0 1 -1.16-.5 2.18 2.18 0 0 1 -.41-1.42 2.228 2.228 0 0 1 .415-1.435 1.4 1.4 0 0 1 1.155-.515 1.376 1.376 0 0 1 1.14.5 2.765 2.765 0 0 1 0 2.865 1.37 1.37 0 0 1 -1.14.5zm11.05-4.43-1.45 4.07-1.45-4.07h-.71l-1.47 4.06-1.42-4.06h-.85l1.86 5.03h.78l1.43-3.93 1.44 3.93h.78l1.86-5.03zm6.09 0v.87a1.7 1.7 0 0 0 -.67-.73 1.99 1.99 0 0 0 -1.03-.26 2.08 2.08 0 0 0 -1.165.33 2.181 2.181 0 0 0 -.785.925 3.521 3.521 0 0 0 0 2.74 2.093 2.093 0 0 0 .78.905 2.145 2.145 0 0 0 1.175.32 2.047 2.047 0 0 0 1.035-.255 1.6 1.6 0 0 0 .665-.725v.91h.8v-5.03h-.8zm-1.54 4.43a1.415 1.415 0 0 1 -1.16-.5 2.18 2.18 0 0 1 -.41-1.42 2.228 2.228 0 0 1 .415-1.435 1.4 1.4 0 0 1 1.155-.515 1.376 1.376 0 0 1 1.14.5 2.765 2.765 0 0 1 0 2.865 1.37 1.37 0 0 1 -1.14.5zm10.65.68a3.919 3.919 0 0 0 1.355-.225 2.89 2.89 0 0 0 1.065-.675l-.31-.63a3.461 3.461 0 0 1 -1 .63 3.032 3.032 0 0 1 -1.095.19 2.239 2.239 0 0 1 -1.82-.765 3.3 3.3 0 0 1 -.64-2.175 3.245 3.245 0 0 1 .645-2.16 2.251 2.251 0 0 1 1.815-.76 3.034 3.034 0 0 1 1.095.19 3.465 3.465 0 0 1 1 .63l.31-.63a2.89 2.89 0 0 0 -1.065-.675 3.919 3.919 0 0 0 -1.355-.225 3.385 3.385 0 0 0 -1.755.44 2.9 2.9 0 0 0 -1.145 1.255 4.345 4.345 0 0 0 -.4 1.935 4.409 4.409 0 0 0 .4 1.945 2.889 2.889 0 0 0 1.145 1.265 3.384 3.384 0 0 0 1.755.44zm6.67-5.23a2.1 2.1 0 0 0 -1.015.24 1.633 1.633 0 0 0 -.685.7v-3.15h-.81v7.36h.81v-2.882a1.589 1.589 0 0 1 .42-1.16 1.494 1.494 0 0 1 1.12-.43 1.1 1.1 0 0 1 .88.325 1.554 1.554 0 0 1 .28 1.025v3.12h.81v-3.16q0-1.99-1.81-1.99zm7.42.12v.87a1.7 1.7 0 0 0 -.67-.73 1.99 1.99 0 0 0 -1.03-.26 2.08 2.08 0 0 0 -1.165.33 2.181 2.181 0 0 0 -.785.925 3.521 3.521 0 0 0 0 2.74 2.093 2.093 0 0 0 .78.905 2.145 2.145 0 0 0 1.175.32 2.047 2.047 0 0 0 1.035-.255 1.6 1.6 0 0 0 .665-.725v.91h.8v-5.03h-.8zm-1.54 4.43a1.415 1.415 0 0 1 -1.16-.5 2.18 2.18 0 0 1 -.41-1.42 2.228 2.228 0 0 1 .415-1.435 1.4 1.4 0 0 1 1.155-.515 1.376 1.376 0 0 1 1.14.5 2.765 2.765 0 0 1 0 2.865 1.37 1.37 0 0 1 -1.14.5zm9.79-4.55a1.924 1.924 0 0 0 -1.005.268 1.737 1.737 0 0 0 -.675.715 1.4 1.4 0 0 0 -.56-.74 1.81 1.81 0 0 0 -.98-.24 1.777 1.777 0 0 0 -.965.26 1.606 1.606 0 0 0 -.625.74l-.08-.88h-.765a11.33 11.33 0 0 1 .08 1.41v3.62h.81v-2.87a1.746 1.746 0 0 1 .365-1.17 1.247 1.247 0 0 1 1-.43.947.947 0 0 1 .8.325 1.691 1.691 0 0 1 .25 1.025v3.12h.81v-2.87a1.766 1.766 0 0 1 .36-1.17 1.233 1.233 0 0 1 1-.43.94.94 0 0 1 .795.32 1.712 1.712 0 0 1 .245 1.03v3.12h.81v-3.16q0-1.99-1.67-1.99zm6.23 0a2.011 2.011 0 0 0 -1.035.26 1.6 1.6 0 0 0 -.665.75v-3.22h-.81v7.36h.81v-.93a1.674 1.674 0 0 0 .67.74 1.984 1.984 0 0 0 1.03.26 2.106 2.106 0 0 0 1.17-.33 2.177 2.177 0 0 0 .79-.925 3.205 3.205 0 0 0 .28-1.375 3.139 3.139 0 0 0 -.28-1.365 2.121 2.121 0 0 0 -.79-.905 2.155 2.155 0 0 0 -1.17-.32zm-.15 4.55a1.38 1.38 0 0 1 -1.15-.5 2.765 2.765 0 0 1 0-2.865 1.567 1.567 0 0 1 2.3 0 2.186 2.186 0 0 1 .4 1.41 2.268 2.268 0 0 1 -.41 1.445 1.377 1.377 0 0 1 -1.14.515zm8.15-2.09a2.658 2.658 0 0 0 -.57-1.805 1.973 1.973 0 0 0 -1.57-.655 2.311 2.311 0 0 0 -1.23.33 2.238 2.238 0 0 0 -.84.925 2.992 2.992 0 0 0 -.3 1.365 2.628 2.628 0 0 0 .67 1.905 2.447 2.447 0 0 0 1.85.695 3.179 3.179 0 0 0 1.055-.18 2.347 2.347 0 0 0 .845-.49l-.27-.59a2.544 2.544 0 0 1 -1.62.59 1.6 1.6 0 0 1 -1.265-.49 2.155 2.155 0 0 1 -.445-1.45h3.69zm-2.13-1.83a1.3 1.3 0 0 1 .985.37 1.725 1.725 0 0 1 .415 1.08h-2.93a1.83 1.83 0 0 1 .5-1.07 1.417 1.417 0 0 1 1.025-.38zm5.56-.63a1.736 1.736 0 0 0 -.96.27 1.527 1.527 0 0 0 -.61.78l-.08-.93h-.765a11.33 11.33 0 0 1 .08 1.41v3.62h.81v-2.87a1.74 1.74 0 0 1 .355-1.105 1.29 1.29 0 0 1 1.085-.455 1.614 1.614 0 0 1 .53.08l.02-.74a1.673 1.673 0 0 0 -.46-.06zm7.34 5.22a2.406 2.406 0 0 0 1.25-.32 2.147 2.147 0 0 0 .835-.91 3.375 3.375 0 0 0 0-2.76 2.148 2.148 0 0 0 -.835-.91 2.6 2.6 0 0 0 -2.5 0 2.142 2.142 0 0 0 -.835.91 3.375 3.375 0 0 0 0 2.76 2.141 2.141 0 0 0 .835.91 2.4 2.4 0 0 0 1.25.32zm0-.67a1.407 1.407 0 0 1 -1.155-.495 2.235 2.235 0 0 1 -.405-1.445 2.2 2.2 0 0 1 .41-1.425 1.551 1.551 0 0 1 2.29 0 2.208 2.208 0 0 1 .41 1.425 2.259 2.259 0 0 1 -.4 1.445 1.393 1.393 0 0 1 -1.15.495zm6.15-6.1a1.9 1.9 0 0 1 .52.08v-.69a2.575 2.575 0 0 0 -.68-.09 1.471 1.471 0 0 0 -1.105.405 1.643 1.643 0 0 0 -.395 1.2v.77h-.98v.64h.98v4.39h.81v-4.39h1.23v-.64h-1.23v-.67a1.077 1.077 0 0 1 .225-.775.844.844 0 0 1 .625-.225zm7.81 6.78a3.919 3.919 0 0 0 1.355-.225 2.89 2.89 0 0 0 1.065-.675l-.31-.63a3.461 3.461 0 0 1 -1 .63 3.032 3.032 0 0 1 -1.095.19 2.239 2.239 0 0 1 -1.82-.765 3.3 3.3 0 0 1 -.64-2.175 3.245 3.245 0 0 1 .645-2.16 2.251 2.251 0 0 1 1.815-.76 3.034 3.034 0 0 1 1.095.19 3.465 3.465 0 0 1 1 .63l.31-.63a2.89 2.89 0 0 0 -1.065-.675 3.919 3.919 0 0 0 -1.355-.225 3.385 3.385 0 0 0 -1.755.44 2.9 2.9 0 0 0 -1.145 1.255 4.345 4.345 0 0 0 -.4 1.935 4.409 4.409 0 0 0 .4 1.945 2.889 2.889 0 0 0 1.145 1.265 3.384 3.384 0 0 0 1.755.44zm6.24-.01a2.406 2.406 0 0 0 1.25-.32 2.147 2.147 0 0 0 .835-.91 3.375 3.375 0 0 0 0-2.76 2.148 2.148 0 0 0 -.835-.91 2.6 2.6 0 0 0 -2.5 0 2.142 2.142 0 0 0 -.835.91 3.375 3.375 0 0 0 0 2.76 2.141 2.141 0 0 0 .835.91 2.4 2.4 0 0 0 1.25.32zm0-.67a1.407 1.407 0 0 1 -1.155-.495 2.235 2.235 0 0 1 -.4-1.445 2.2 2.2 0 0 1 .41-1.425 1.551 1.551 0 0 1 2.29 0 2.208 2.208 0 0 1 .41 1.425 2.259 2.259 0 0 1 -.4 1.445 1.393 1.393 0 0 1 -1.15.495zm9.8-4.55a1.924 1.924 0 0 0 -1 .265 1.737 1.737 0 0 0 -.675.715 1.4 1.4 0 0 0 -.56-.74 1.81 1.81 0 0 0 -.98-.24 1.777 1.777 0 0 0 -.965.26 1.606 1.606 0 0 0 -.625.74l-.08-.88h-.77a11.33 11.33 0 0 1 .08 1.41v3.62h.81v-2.87a1.746 1.746 0 0 1 .365-1.17 1.247 1.247 0 0 1 1-.43.947.947 0 0 1 .8.325 1.691 1.691 0 0 1 .25 1.025v3.12h.81v-2.87a1.766 1.766 0 0 1 .36-1.17 1.233 1.233 0 0 1 1-.43.94.94 0 0 1 .8.32 1.712 1.712 0 0 1 .245 1.03v3.12h.81v-3.16q0-1.99-1.67-1.99zm9.3 0a1.924 1.924 0 0 0 -1 .265 1.737 1.737 0 0 0 -.675.715 1.4 1.4 0 0 0 -.56-.74 1.81 1.81 0 0 0 -.98-.24 1.777 1.777 0 0 0 -.965.26 1.606 1.606 0 0 0 -.625.74l-.08-.88h-.77a11.33 11.33 0 0 1 .08 1.41v3.62h.81v-2.87a1.746 1.746 0 0 1 .365-1.17 1.247 1.247 0 0 1 1-.43.947.947 0 0 1 .8.325 1.691 1.691 0 0 1 .25 1.025v3.12h.81v-2.87a1.766 1.766 0 0 1 .36-1.17 1.233 1.233 0 0 1 1-.43.94.94 0 0 1 .8.32 1.712 1.712 0 0 1 .245 1.03v3.12h.81v-3.16q0-1.99-1.67-1.99zm7.93 2.46a2.658 2.658 0 0 0 -.57-1.805 1.973 1.973 0 0 0 -1.57-.655 2.311 2.311 0 0 0 -1.23.33 2.238 2.238 0 0 0 -.84.925 2.992 2.992 0 0 0 -.3 1.365 2.628 2.628 0 0 0 .67 1.905 2.447 2.447 0 0 0 1.85.695 3.179 3.179 0 0 0 1.055-.18 2.347 2.347 0 0 0 .845-.49l-.27-.59a2.544 2.544 0 0 1 -1.62.59 1.6 1.6 0 0 1 -1.265-.49 2.155 2.155 0 0 1 -.445-1.45h3.69zm-2.13-1.83a1.3 1.3 0 0 1 .985.37 1.725 1.725 0 0 1 .415 1.08h-2.93a1.83 1.83 0 0 1 .5-1.07 1.417 1.417 0 0 1 1.025-.38zm5.56-.63a1.736 1.736 0 0 0 -.96.27 1.527 1.527 0 0 0 -.61.78l-.08-.93h-.765a11.33 11.33 0 0 1 .08 1.41v3.62h.81v-2.87a1.74 1.74 0 0 1 .355-1.105 1.29 1.29 0 0 1 1.085-.455 1.614 1.614 0 0 1 .53.08l.02-.74a1.673 1.673 0 0 0 -.46-.06zm4.07 5.22a2.946 2.946 0 0 0 1-.175 2.309 2.309 0 0 0 .815-.477l-.27-.6a2.976 2.976 0 0 1 -.735.44 1.963 1.963 0 0 1 -.725.14 1.518 1.518 0 0 1 -1.215-.5 2.1 2.1 0 0 1 -.435-1.415 2.138 2.138 0 0 1 .44-1.435 1.506 1.506 0 0 1 1.21-.515 1.965 1.965 0 0 1 .725.14 2.979 2.979 0 0 1 .735.44l.27-.6a2.144 2.144 0 0 0 -.785-.485 2.83 2.83 0 0 0 -.985-.175 2.484 2.484 0 0 0 -1.3.33 2.207 2.207 0 0 0 -.855.925 3.3 3.3 0 0 0 0 2.74 2.134 2.134 0 0 0 .84.905 2.47 2.47 0 0 0 1.275.32zm7.4-2.76a2.658 2.658 0 0 0 -.57-1.805 1.973 1.973 0 0 0 -1.57-.655 2.311 2.311 0 0 0 -1.23.33 2.238 2.238 0 0 0 -.84.925 2.992 2.992 0 0 0 -.3 1.365 2.628 2.628 0 0 0 .67 1.905 2.447 2.447 0 0 0 1.85.695 3.179 3.179 0 0 0 1.055-.18 2.347 2.347 0 0 0 .845-.49l-.27-.59a2.544 2.544 0 0 1 -1.62.59 1.6 1.6 0 0 1 -1.265-.49 2.155 2.155 0 0 1 -.445-1.45h3.69zm-2.13-1.83a1.3 1.3 0 0 1 .985.37 1.725 1.725 0 0 1 .415 1.08h-2.93a1.83 1.83 0 0 1 .5-1.07 1.417 1.417 0 0 1 1.025-.38zm10.15-.51v.87a1.7 1.7 0 0 0 -.67-.73 1.99 1.99 0 0 0 -1.03-.26 2.08 2.08 0 0 0 -1.165.33 2.181 2.181 0 0 0 -.785.925 3.521 3.521 0 0 0 0 2.74 2.093 2.093 0 0 0 .78.905 2.145 2.145 0 0 0 1.175.32 2.047 2.047 0 0 0 1.035-.255 1.6 1.6 0 0 0 .665-.725v.91h.8v-5.03h-.8zm-1.54 4.43a1.415 1.415 0 0 1 -1.16-.5 2.18 2.18 0 0 1 -.41-1.42 2.228 2.228 0 0 1 .415-1.435 1.4 1.4 0 0 1 1.155-.515 1.376 1.376 0 0 1 1.14.5 2.765 2.765 0 0 1 0 2.865 1.37 1.37 0 0 1 -1.14.5zm6.72-4.55a2.062 2.062 0 0 0 -1.05.265 1.664 1.664 0 0 0 -.69.755l-.08-.9h-.765a11.33 11.33 0 0 1 .08 1.41v3.62h.81v-2.882a1.589 1.589 0 0 1 .42-1.16 1.494 1.494 0 0 1 1.12-.43 1.1 1.1 0 0 1 .88.325 1.554 1.554 0 0 1 .28 1.025v3.12h.81v-3.16q0-1.99-1.81-1.99zm7.41-2.21v3.178a1.616 1.616 0 0 0 -.66-.715 2.02 2.02 0 0 0 -1.03-.255 2.155 2.155 0 0 0 -1.17.32 2.085 2.085 0 0 0 -.785.905 3.521 3.521 0 0 0 0 2.74 2.18 2.18 0 0 0 .785.925 2.08 2.08 0 0 0 1.165.33 2.047 2.047 0 0 0 1.035-.255 1.6 1.6 0 0 0 .665-.725v.91h.8v-7.36h-.8zm-1.53 6.76a1.4 1.4 0 0 1 -1.155-.515 2.245 2.245 0 0 1 -.415-1.445 2.147 2.147 0 0 1 .415-1.41 1.417 1.417 0 0 1 1.155-.5 1.371 1.371 0 0 1 1.14.5 2.756 2.756 0 0 1 0 2.86 1.37 1.37 0 0 1 -1.14.5zm7.61.6h.82v-7.12h-.82zm5.71-5.15a2.062 2.062 0 0 0 -1.05.265 1.664 1.664 0 0 0 -.69.755l-.08-.9h-.765a11.33 11.33 0 0 1 .08 1.41v3.62h.81v-2.882a1.589 1.589 0 0 1 .42-1.16 1.494 1.494 0 0 1 1.12-.43 1.1 1.1 0 0 1 .88.325 1.554 1.554 0 0 1 .28 1.025v3.12h.81v-3.16q0-1.99-1.81-1.99zm7.41-2.21v3.178a1.616 1.616 0 0 0 -.66-.715 2.02 2.02 0 0 0 -1.03-.255 2.155 2.155 0 0 0 -1.17.32 2.085 2.085 0 0 0 -.785.905 3.521 3.521 0 0 0 0 2.74 2.18 2.18 0 0 0 .785.925 2.08 2.08 0 0 0 1.165.33 2.047 2.047 0 0 0 1.035-.255 1.6 1.6 0 0 0 .665-.725v.91h.8v-7.36h-.8zm-1.53 6.76a1.4 1.4 0 0 1 -1.155-.515 2.245 2.245 0 0 1 -.415-1.445 2.147 2.147 0 0 1 .415-1.41 1.417 1.417 0 0 1 1.155-.5 1.371 1.371 0 0 1 1.14.5 2.756 2.756 0 0 1 0 2.86 1.37 1.37 0 0 1 -1.14.5zm7.61-4.43v2.84a1.6 1.6 0 0 1 -.41 1.145 1.417 1.417 0 0 1 -1.08.435 1.069 1.069 0 0 1 -.85-.32 1.491 1.491 0 0 1 -.28-1v-3.1h-.81v3.12a2.115 2.115 0 0 0 .46 1.48 1.742 1.742 0 0 0 1.35.5 1.957 1.957 0 0 0 .97-.24 1.662 1.662 0 0 0 .67-.7v.87h.79v-5.03zm4.6 5.1a2.384 2.384 0 0 0 1.44-.39 1.229 1.229 0 0 0 .53-1.04 1.177 1.177 0 0 0 -.34-.875 2.141 2.141 0 0 0 -1.04-.5l-.85-.21a1.28 1.28 0 0 1 -.595-.28.649.649 0 0 1 -.185-.49.66.66 0 0 1 .295-.575 1.45 1.45 0 0 1 .835-.205 2.339 2.339 0 0 1 1.52.59l.27-.59a2.126 2.126 0 0 0 -.79-.49 2.922 2.922 0 0 0 -1-.17 2.207 2.207 0 0 0 -1.4.415 1.3 1.3 0 0 0 -.53 1.075 1.2 1.2 0 0 0 .345.86 1.874 1.874 0 0 0 .975.5l.85.2a1.466 1.466 0 0 1 .66.28.615.615 0 0 1 .2.48.637.637 0 0 1 -.295.565 1.576 1.576 0 0 1 -.865.2 2.959 2.959 0 0 1 -.94-.14 2.784 2.784 0 0 1 -.83-.46l-.27.6a2.937 2.937 0 0 0 2.01.65zm6.12-4.46v-.64h-1.44v-1.58l-.81.29v1.29h-.98v.64h.98v2.86a1.62 1.62 0 0 0 .405 1.195 1.521 1.521 0 0 0 1.125.405 2.279 2.279 0 0 0 .7-.1v-.69a1.645 1.645 0 0 1 -.54.09.89.89 0 0 1 -.65-.225 1.074 1.074 0 0 1 -.23-.785v-2.75zm3.12-.76a1.736 1.736 0 0 0 -.96.27 1.527 1.527 0 0 0 -.61.78l-.08-.93h-.765a11.33 11.33 0 0 1 .08 1.41v3.62h.81v-2.87a1.74 1.74 0 0 1 .355-1.105 1.29 1.29 0 0 1 1.085-.455 1.614 1.614 0 0 1 .53.08l.02-.74a1.673 1.673 0 0 0 -.46-.06zm5.57.12-1.72 4.148-1.7-4.15h-.85l2.13 4.98-.2.45a1.933 1.933 0 0 1 -.605.815 2.97 2.97 0 0 1 -1.075.425l.17.63a3.4 3.4 0 0 0 1.38-.55 2.918 2.918 0 0 0 .93-1.26l2.35-5.49h-.81z" fill="#777"/><path d="m188.594 52.107a16.2 16.2 0 0 1 -.75 2.01h-.48c-2.67 0-3.57-.06-3.78-.06-.3 0-.33.03-.33.33 0 .18.06 1.2.06 3.45v7.98c0 2.28-.06 3.3-.06 3.51 0 .27.03.3.33.3.21 0 1.11-.06 3.78-.06h6.27c2.669 0 3.569.06 3.779.06.3 0 .33-.03.33-.3 0-.18-.06-1.23-.06-3.51v-7.98c0-2.25.06-3.27.06-3.45 0-.3-.03-.33-.33-.33-.21 0-1.11.06-3.779.06h-2.76l.81-2.01h3.449c2.88 0 3.87.06 4.05.06.27 0 .3-.03.3-.36v-2.19c0-.3-.03-.33-.3-.33-.18 0-1.17.06-4.05.06h-8.639c-2.88 0-3.87-.06-4.05-.06-.3 0-.33.03-.33.33v2.19c0 .33.03.36.33.36.18 0 1.17-.06 4.05-.06zm6.03 14.879h-8.28v-1.98h8.28zm-8.28-4.35v-1.86h8.28v1.86zm0-6h8.28v1.8h-8.28zm-14.52 15.3a6.164 6.164 0 0 1 1.5 1.68 1 1 0 0 0 .63.69 1.311 1.311 0 0 0 .66-.3 26.91 26.91 0 0 0 6.81-6.24 3.5 3.5 0 0 1 .93-1.02.47.47 0 0 0 .33-.42.735.735 0 0 0 -.36-.51 12.2 12.2 0 0 0 -2.37-1.65 14.154 14.154 0 0 1 -1.02 1.65 21.277 21.277 0 0 1 -7.11 6.121zm7.68-15.9a7.062 7.062 0 0 1 -.93 1.35 18.926 18.926 0 0 1 -6.39 4.92 8.121 8.121 0 0 1 1.2 1.95.966.966 0 0 0 .54.72 1.66 1.66 0 0 0 .69-.33 28.032 28.032 0 0 0 6.18-5.1 5.711 5.711 0 0 1 .99-.96.443.443 0 0 0 .3-.36.9.9 0 0 0 -.36-.54 11.868 11.868 0 0 0 -2.224-1.649zm-.42-7.47a7.276 7.276 0 0 1 -.9 1.32 17.174 17.174 0 0 1 -6.36 4.35 6.031 6.031 0 0 1 1.32 1.86c.21.48.3.69.51.69a2.241 2.241 0 0 0 .72-.3 21.839 21.839 0 0 0 6-4.68 3.4 3.4 0 0 1 .87-.78.463.463 0 0 0 .36-.39.618.618 0 0 0 -.24-.51 13.212 13.212 0 0 0 -2.28-1.558zm7.2 21.029a5.147 5.147 0 0 1 -.96.87 17.85 17.85 0 0 1 -6.24 2.73 8.374 8.374 0 0 1 1.59 1.89.755.755 0 0 0 .54.54 2.3 2.3 0 0 0 .69-.18 20.228 20.228 0 0 0 5.76-3.06 5.1 5.1 0 0 1 .87-.6.548.548 0 0 0 .39-.39.562.562 0 0 0 -.33-.42 11.739 11.739 0 0 0 -2.31-1.375zm5.94 1.35c-.27.18-.33.27-.09.51a20.479 20.479 0 0 0 5.129 3.72 2.794 2.794 0 0 0 .72.27 1.1 1.1 0 0 0 .69-.72 6.984 6.984 0 0 1 1.35-1.65 17.671 17.671 0 0 1 -5.609-3.36c-.21-.18-.3-.15-.66.09zm18.776-11.698c-2.94 0-3.96-.06-4.17-.06-.3 0-.33.03-.33.33 0 .18.06.99.06 2.94v5.28c0 1.92-.06 2.73-.06 2.94 0 .3.03.33.33.33.21 0 1.23-.06 4.17-.06h9.81c2.91 0 3.96.06 4.14.06.3 0 .329-.03.329-.33 0-.18-.06-1.02-.06-2.94v-5.28c0-1.95.06-2.76.06-2.94 0-.3-.03-.33-.329-.33-.18 0-1.23.06-4.14.06zm11.31 9.63h-12.87v-1.35h12.87zm-12.87-3.18v-1.26h12.87v1.263h-12.87zm0-4.35h12.87v1.26h-12.87zm11.674-11.847c-2.16 0-2.88-.06-3.06-.06-.33 0-.36.03-.36.33 0 .21.06.84.06 2.4v3.03c0 1.59-.06 2.22-.06 2.4 0 .3.03.33.36.33.18 0 .9-.06 3.06-.06h3.57c2.159 0 2.879.06 3.089.06.3 0 .33-.03.33-.33 0-.18-.06-.81-.06-2.4v-3.03c0-1.56.06-2.22.06-2.4 0-.3-.03-.33-.33-.33-.21 0-.93.06-3.089.06zm4.079 6.03h-4.619v-3.69h4.619zm-22.529-3.09c0 .3.03.33.36.33.18 0 1.02-.06 3.54-.06h.54c-.72 2.25-2.16 3.63-4.92 4.86a6.925 6.925 0 0 1 1.41 1.41 1.125 1.125 0 0 0 .72.69 2.162 2.162 0 0 0 .72-.36 9.982 9.982 0 0 0 5.01-6.6h3.06a9.789 9.789 0 0 1 -.42 2.7 1.306 1.306 0 0 1 -1.38.57 11.7 11.7 0 0 1 -1.92-.18 5.3 5.3 0 0 1 .51 1.56c.15.96.18.96.87.99.48 0 .84.03 1.26.03 1.71 0 2.88-.57 3.33-1.59a15.812 15.812 0 0 0 .72-4.47c.03-.54.06-1.08.12-1.65 0-.27-.06-.39-.36-.39-.18 0-1.08.06-3.6.06h-1.77a1.345 1.345 0 0 1 .03-.33 2.67 2.67 0 0 1 .24-.99.8.8 0 0 0 .15-.42c0-.15-.12-.27-.54-.33-.75-.09-1.77-.18-2.73-.24a8.511 8.511 0 0 1 -.03 2.31h-1.02c-2.52 0-3.36-.06-3.54-.06-.33 0-.36.03-.36.36zm15.75 19.679c-.42.15-.42.27-.15.45a23.066 23.066 0 0 0 8.189 2.94c.93.15 1.05.12 1.41-.51a8.86 8.86 0 0 1 1.44-1.92 23.424 23.424 0 0 1 -8.159-1.95.588.588 0 0 0 -.72.03zm-7.89-1.11a6.733 6.733 0 0 1 -1.41.78 26.126 26.126 0 0 1 -6.75 1.41 7.411 7.411 0 0 1 1.35 1.8c.39.69.42.72 1.35.57a23.235 23.235 0 0 0 6.84-2.1 4.942 4.942 0 0 1 1.23-.54.461.461 0 0 0 .45-.36.493.493 0 0 0 -.42-.42 23.079 23.079 0 0 0 -2.64-1.142zm28.376-17.432a13.491 13.491 0 0 1 .15-3.24 1.942 1.942 0 0 0 .21-.69.468.468 0 0 0 -.54-.39c-1.02-.15-2.1-.21-3.33-.27a29.11 29.11 0 0 1 .3 4.56v3a48.939 48.939 0 0 1 -.57 8.79 16.163 16.163 0 0 1 -3.24 7.38 7.616 7.616 0 0 1 1.95 1.8 1.244 1.244 0 0 0 .6.51.962.962 0 0 0 .54-.54 21.808 21.808 0 0 0 3.24-8.25 58.645 58.645 0 0 0 .69-9.99zm15.15 15.689c0 3.75-.06 5.34-.06 5.52 0 .3.03.33.33.33h2.669c.3 0 .33-.03.33-.33 0-.18-.06-1.77-.06-5.55v-15.869a10.023 10.023 0 0 1 .24-3.18 1.7 1.7 0 0 0 .21-.66.487.487 0 0 0 -.54-.39 29.3 29.3 0 0 0 -3.359-.27 33.089 33.089 0 0 1 .24 4.59v15.81zm-9.33-2.46c0 3.18-.06 4.8-.06 4.98 0 .33.03.36.33.36h2.64c.33 0 .36-.03.36-.36 0-.18-.06-1.8-.06-4.98v-12.059a9.911 9.911 0 0 1 .21-3.12 1.834 1.834 0 0 0 .21-.72.512.512 0 0 0 -.54-.39c-1.02-.12-2.19-.18-3.36-.21a27.312 27.312 0 0 1 .27 4.53v11.97zm43.139-5.58c0-2.73.06-4.14.06-4.32 0-.3-.03-.33-.33-.33-.18 0-1.2.06-4.079.06h-1.92a8.088 8.088 0 0 0 .45-.87 1.88 1.88 0 0 1 .48-.66.643.643 0 0 0 .3-.48.407.407 0 0 0 -.36-.36 24.023 24.023 0 0 0 -2.91-.66 4.753 4.753 0 0 1 -.33 1.29 13.842 13.842 0 0 1 -.75 1.74h-5.19a13.324 13.324 0 0 0 -1.32-2.7.52.52 0 0 0 -.72-.3l-1.83.57c-.36.12-.45.21-.27.48a11.9 11.9 0 0 1 .99 1.95h-1.8c-2.85 0-3.87-.06-4.08-.06-.3 0-.33.03-.33.33 0 .21.06 1.41.06 4.08v10.26c0 2.64-.06 3.84-.06 4.02 0 .3.03.33.33.33h2.55c.3 0 .33-.03.33-.33 0-.15-.06-1.38-.06-3.9v-7.5a5.8 5.8 0 0 1 1.05 1.2.957.957 0 0 0 .72.66 1.614 1.614 0 0 0 .66-.24 7.611 7.611 0 0 0 4.92-6.36h2.28v3.03a1.882 1.882 0 0 0 .69 1.71c.39.3 1.11.39 2.64.39 1.92 0 2.55-.06 3.24-.57a2.857 2.857 0 0 0 1.08-2.46c.03-.63-.09-.81-.69-.9a5.093 5.093 0 0 1 -1.5-.66c-.03 1.26-.06 1.65-.36 1.95a1.994 1.994 0 0 1 -1.2.24 1.751 1.751 0 0 1 -.99-.12 1.034 1.034 0 0 1 -.18-.87v-1.74h5.34v12.63a.766.766 0 0 1 -.96.84c-.75 0-1.08-.03-1.89-.09a4.662 4.662 0 0 1 .81 2.25c.09.72.09.75 1.02.72 2.129-.06 2.939-.3 3.389-.72a2.991 2.991 0 0 0 .81-2.43c0-1.02-.09-2.76-.09-4.53zm-16.289-2.1c-.24 2.1-1.62 3.63-4.5 4.5v-4.5zm1.23 14.674c.3 0 .33-.03.33-.36v-1.08h5.58v.63c0 .33.03.36.33.36h2.16c.3 0 .33-.03.33-.36 0-.18-.06-.75-.06-3.78v-1.71c0-1.17.06-1.77.06-1.95 0-.3-.03-.33-.33-.33-.18 0-.93.06-3.24.06h-4.08c-2.31 0-3.06-.06-3.24-.06-.3 0-.33.03-.33.33 0 .21.06.84.06 2.37v1.53c0 3.21-.06 3.81-.06 3.99 0 .33.03.36.33.36zm.33-6.3h5.58v2.64h-5.58zm12.209-14.039c2.67 0 3.57.06 3.75.06.27 0 .3-.03.3-.33v-2.07c0-.3-.03-.33-.3-.33-.18 0-1.08.06-3.75.06h-8.039v-.24a4 4 0 0 1 .15-1.53 2.006 2.006 0 0 0 .15-.57c0-.15-.15-.27-.45-.3-1.02-.09-2.1-.15-3.21-.18a10.782 10.782 0 0 1 .21 2.58v.24h-7.5c-2.67 0-3.57-.06-3.75-.06-.27 0-.3.03-.3.33v2.07c0 .3.03.33.3.33.18 0 1.08-.06 3.75-.06zm29.73 19.409c2.67 0 3.6.06 3.78.06.3 0 .33-.03.33-.33v-2.52c0-.3-.03-.33-.33-.33-.18 0-1.11.06-3.78.06h-7.649v-15.543h5.73c2.879 0 3.839.06 4.019.06.3 0 .33-.03.33-.33v-2.52c0-.3-.03-.33-.33-.33-.18 0-1.14.06-4.019.06h-14.4c-2.91 0-3.87-.06-4.05-.06-.3 0-.33.03-.33.33v2.523c0 .3.03.33.33.33.18 0 1.14-.06 4.05-.06h5.28v15.537h-7.23c-2.67 0-3.6-.06-3.78-.06-.3 0-.33.03-.33.33v2.523c0 .3.03.33.33.33.18 0 1.11-.06 3.78-.06zm16.081-7.08a48.461 48.461 0 0 1 -2.64 5.82c-.33 0-.66.03-.96.03a23.786 23.786 0 0 1 -3.27 0c.18 1.05.36 2.1.63 3.09a.448.448 0 0 0 .42.42.757.757 0 0 0 .51-.18 2.663 2.663 0 0 1 1.08-.27c5.1-.39 11.22-.9 16.2-1.53.48.72.99 1.5 1.5 2.34a.308.308 0 0 0 .24.21.767.767 0 0 0 .359-.18l2.07-1.35c.3-.21.3-.33.15-.57a52.935 52.935 0 0 0 -5.579-6.96c-.21-.21-.3-.24-.63-.06l-1.92.99c-.36.18-.39.3-.18.54.81.87 1.5 1.71 2.19 2.55-2.85.3-6.12.57-9.24.75a56.164 56.164 0 0 0 2.67-5.64h9.27c2.819 0 3.779.06 3.959.06.33 0 .36-.03.36-.33v-2.25c0-.3-.03-.33-.36-.33-.18 0-1.14.06-3.959.06h-15.99c-2.82 0-3.78-.06-3.96-.06-.33 0-.36.03-.36.33v2.25c0 .3.03.33.36.33.18 0 1.14-.06 3.96-.06zm-1.2-5.85c0 .3.03.33.33.33.18 0 .99-.06 3.39-.06h4.62c2.4 0 3.21.06 3.39.06.3 0 .33-.03.33-.33v-2.22a33.042 33.042 0 0 0 5.729 3.18 2.063 2.063 0 0 0 .69.24c.21 0 .3-.21.51-.75a8.911 8.911 0 0 1 1.29-2.25 27.018 27.018 0 0 1 -12.689-8.58 2.553 2.553 0 0 1 .42-.27.494.494 0 0 0 .3-.48c0-.21-.18-.33-.54-.42a22.992 22.992 0 0 0 -3.24-.63 8.947 8.947 0 0 1 -1.05 1.95 25.041 25.041 0 0 1 -11.52 8.73 7.015 7.015 0 0 1 1.35 1.98c.24.54.33.75.54.75a1.966 1.966 0 0 0 .72-.27 35.079 35.079 0 0 0 5.43-3.24zm3.72-2.52c-2.19 0-3.03-.03-3.3-.06a28 28 0 0 0 5.49-5.49 27.337 27.337 0 0 0 5.67 5.49c-.33.03-1.23.06-3.24.06zm41.579 8.91c2.73-.03 3.81-.03 4.11-.03.27 0 .3-.03.3-.3l-.03-1.59c0-.3 0-.33-.3-.33s-1.35.06-4.08.12l-1.529.03c-.03-.45-.06-.93-.06-1.44a4.529 4.529 0 0 1 .09-1.41 1.646 1.646 0 0 0 .15-.51c0-.24-.24-.33-.66-.39a17.944 17.944 0 0 0 -2.43-.18 10.516 10.516 0 0 1 .24 1.98l.09 1.98-3.24.03v-1.71c.39-.09.75-.21 1.11-.33a5.955 5.955 0 0 1 .9-.18.382.382 0 0 0 .42-.3.528.528 0 0 0 -.18-.39 10.313 10.313 0 0 0 -1.44-1.32 4.3 4.3 0 0 1 -1.17.48 32.681 32.681 0 0 1 -5.43.96 6.535 6.535 0 0 1 .66 1.44c.18.54.18.54.81.45l1.83-.27v1.23c-2.28.03-3.21 0-3.48 0-.3 0-.33 0-.33.3l.03 1.59c0 .3.03.33.3.33.3 0 1.17-.06 3.48-.09v1.74c-.63.09-1.23.15-1.83.21a16.876 16.876 0 0 1 -2.31.15c.09.66.24 1.53.39 2.19.06.33.18.42.33.42a.985.985 0 0 0 .42-.18 3.482 3.482 0 0 1 1.08-.27l1.92-.27v1.59c0 .78-.18 1.02-1.02 1.02a13.109 13.109 0 0 1 -1.92-.15 7.035 7.035 0 0 1 .57 1.59c.18.93.18.93 1.11.9a5.647 5.647 0 0 0 3.03-.54c.6-.36.81-.96.81-2.46 0-.78-.06-1.56-.09-2.4l1.89-.36c.48-.09.48-.15.51-.69a13.4 13.4 0 0 1 .21-1.65l-2.61.51v-1.38l3.51-.06a16.259 16.259 0 0 0 1.23 4.41 14.4 14.4 0 0 1 -4.62 2.22 6.354 6.354 0 0 1 .99 1.26 1.064 1.064 0 0 0 .63.72 2.162 2.162 0 0 0 .72-.24 17.608 17.608 0 0 0 3.42-1.95c1.17 1.74 2.4 2.52 3.839 2.52 1.35 0 2.16-.81 2.55-3.15.15-.9.09-.93-.63-1.32a8.1 8.1 0 0 1 -1.17-.81c-.24 2.01-.54 2.7-.96 2.7s-.99-.39-1.71-1.59c.54-.54.99-1.08 1.44-1.62a5.326 5.326 0 0 1 .9-.93.464.464 0 0 0 .36-.42.576.576 0 0 0 -.36-.48 12.453 12.453 0 0 0 -1.77-1.02 9.4 9.4 0 0 1 -.9 1.5 8.943 8.943 0 0 1 -.719.84 13.34 13.34 0 0 1 -.69-2.67zm-.09-6.57c2.88 0 3.9.06 4.08.06.3 0 .3-.03.3-.33v-1.59c0-.3 0-.33-.3-.33-.18 0-1.2.06-4.08.06h-3.569v-1.35h2.01c2.669 0 3.539.06 3.719.06.3 0 .33-.03.33-.33v-1.5c0-.27-.03-.3-.33-.3-.18 0-1.05.06-3.719.06h-2.01v-1.32h3c2.819 0 3.809.06 3.989.06.3 0 .33-.03.33-.33v-1.56c0-.3-.03-.33-.33-.33-.18 0-1.17.06-3.989.06h-.15c.27-.36.48-.72.749-1.08a1.784 1.784 0 0 1 .51-.54.452.452 0 0 0 .27-.42.462.462 0 0 0 -.42-.33c-.839-.21-1.679-.36-2.609-.51a5.16 5.16 0 0 1 -.48 1.29 14.567 14.567 0 0 1 -.93 1.59h-2.52a15.409 15.409 0 0 0 -1.53-2.58c-.18-.24-.24-.24-.6-.15l-1.62.42c-.39.12-.48.18-.3.45a14.873 14.873 0 0 1 1.14 1.86c-2.25 0-3.12-.06-3.3-.06-.3 0-.33.03-.33.33v1.56c0 .3.03.33.33.33.21 0 1.17-.06 3.99-.06h2.04v1.32h-1.38c-2.67 0-3.54-.06-3.72-.06-.33 0-.36.03-.36.3v1.5c0 .3.03.33.36.33.18 0 1.05-.06 3.72-.06h1.38v1.35h-2.79c-2.88 0-3.9-.06-4.08-.06-.27 0-.3.03-.3.33v1.59c0 .3.03.33.3.33.18 0 1.2-.06 4.08-.06zm-14.549 8.61c0-1.41.06-2.13.06-2.31 0-.3-.03-.33-.33-.33-.21 0-.84.06-2.76.06h-1.44c-1.92 0-2.55-.06-2.73-.06-.33 0-.36.03-.36.33 0 .18.06.93.06 2.82v1.92c0 3.63-.06 4.32-.06 4.5 0 .3.03.33.36.33h2.04c.3 0 .33-.03.33-.33v-1.2h2.22v.66c0 .3.03.33.33.33h2.01c.3 0 .33-.03.33-.33 0-.18-.06-.84-.06-4.32zm-2.61-.09v3.33h-2.22v-3.33zm-2.426-14.88c-2.31 0-3.03-.06-3.21-.06-.3 0-.33.03-.33.33v2.13c0 .33.03.36.33.36.18 0 .9-.06 3.21-.06h2.28c2.28 0 3.03.06 3.21.06.3 0 .33-.03.33-.36v-2.13c0-.3-.03-.33-.33-.33-.18 0-.93.06-3.21.06zm.57-4.11c-1.95 0-2.55-.06-2.73-.06-.3 0-.33.03-.33.33v1.98c0 .3.03.33.33.33.18 0 .78-.06 2.73-.06h1.56c1.92 0 2.52.06 2.7.06.33 0 .36-.03.36-.33v-1.98c0-.3-.03-.33-.36-.33-.18 0-.78.06-2.7.06zm.12 8.37c-1.83 0-2.37-.06-2.55-.06-.3 0-.33.03-.33.33v1.95c0 .3.03.33.33.33.18 0 .72-.06 2.55-.06h1.2c1.8 0 2.34.06 2.52.06.33 0 .36-.03.36-.33v-1.95c0-.3-.03-.33-.36-.33-.18 0-.72.06-2.52.06zm0 4.05c-1.83 0-2.37-.06-2.55-.06-.3 0-.33.03-.33.33v1.92c0 .3.03.33.33.33.18 0 .72-.06 2.55-.06h1.2c1.8 0 2.34.06 2.52.06.33 0 .36-.03.36-.33v-1.92c0-.3-.03-.33-.36-.33-.18 0-.72.06-2.52.06zm18.39-.66c-.3.18-.33.3-.06.48a13.279 13.279 0 0 1 2.069 2.04.426.426 0 0 0 .24.21.6.6 0 0 0 .33-.18l1.26-.87c.3-.21.3-.3.09-.51a10.691 10.691 0 0 0 -2.22-1.92c-.27-.18-.33-.12-.63.03zm28.59-.39v10.89c0 2.4-.03 3.54-.03 3.75 0 .27.03.3.3.3h2.459c.27 0 .3-.03.3-.3 0-.18-.06-1.35-.06-3.75v-10.893c2.19.03 3.03.06 3.21.06.3 0 .33-.03.33-.33v-2.22c0-.3-.03-.33-.33-.33-.18 0-1.17.06-4.11.06h-5.489v-3.69a48.285 48.285 0 0 0 7.649-2.49 4 4 0 0 1 1.14-.36.451.451 0 0 0 .48-.33.813.813 0 0 0 -.24-.6 12.253 12.253 0 0 0 -1.98-2.13 6.965 6.965 0 0 1 -1.59 1.05 25.562 25.562 0 0 1 -5.819 2.13 15.833 15.833 0 0 0 -2.85-.72c.15 1.62.21 3.09.21 4.89v3.66a25.439 25.439 0 0 1 -.84 7.77 12.334 12.334 0 0 1 -4.02 5.97 8.083 8.083 0 0 1 1.89 1.62 1.08 1.08 0 0 0 .6.51 1.057 1.057 0 0 0 .63-.48 15.348 15.348 0 0 0 3.69-6.09 26.429 26.429 0 0 0 1.05-7.95h3.42zm-11.52 4.11v.81c0 .33.03.36.33.36h2.31c.3 0 .33-.03.33-.36 0-.18-.06-.9-.06-2.73v-4.59c0-1.8.06-2.61.06-2.79 0-.3-.03-.33-.33-.33-.15 0-.87.06-3 .06h-3.75c-2.16 0-2.82-.06-3.03-.06-.3 0-.33.03-.33.33 0 .18.06 1.74.06 5.01 0 5.43-.3 9.6-2.46 12.72a7.113 7.113 0 0 1 1.95 1.59 1.177 1.177 0 0 0 .6.48.869.869 0 0 0 .51-.6 23.374 23.374 0 0 0 2.31-9.9zm0-6.9v4.23h-4.41v-4.23zm-5.04-8.16c-2.46 0-3.3-.06-3.48-.06-.3 0-.33.03-.33.33v2.19c0 .33.03.36.33.36.18 0 1.02-.06 3.48-.06h5.04c2.49 0 3.3.06 3.48.06.3 0 .33-.03.33-.36v-2.19c0-.3-.03-.33-.33-.33-.18 0-.99.06-3.48.06z" fill="#333"/><path d="m157.884 48.045c1.576 3.494 1.331 7.742.181 11.365-3.331-1.376-6.72-2.624-10.045-4.127-.366-1-.488-2.5-1.761-2.99-2.9.363-4.417 3.74-5.685 6.05a22.921 22.921 0 0 0 -2.6 11.491 36.263 36.263 0 0 0 3.026 10.066l-.064.246c-5.08-2.058-10.225-3.869-15.13-6.176-1.029.432-1.209 1.68-2.116 2.367-2.912 3.251-6.836 5.684-11.317 5.3a14.88 14.88 0 0 1 -11.015-7.669c-1.82-3.248-1.087-8 .418-11.118.971 0 2 .87 2.848 1.188 2.6 1 4.6 1.871 7.132 3.116.256 1.248.5 2.5 1.7 3.119 2.72-.243 4.173-3.242 5.324-5.618 4.179-6.749 1.877-15.806-.3-22.8 1.755.438 3.575 1.689 5.208 2.127 3.267 1.5 6.353 3.062 9.742 4.445a15.6 15.6 0 0 1 11.5-7.444c5.206-.319 10.531 2.057 12.954 7.062z" fill="#cc2b00"/></g></svg>